<svg xmlns="http://www.w3.org/2000/svg" viewBox="0 0 280 180" fill="none">
  <rect width="280" height="180" fill="#eef2ff"/>
  <circle cx="252" cy="22" r="52" fill="#6366f1" opacity=".08"/>
  <circle cx="14" cy="164" r="46" fill="#8b5cf6" opacity=".07"/>
  <!-- shadow -->
  <rect x="38" y="34" width="206" height="128" rx="11" fill="#6366f1" opacity=".10"/>
  <!-- browser window -->
  <rect x="34" y="28" width="206" height="128" rx="11" fill="#fff" stroke="#c7d2fe" stroke-width="1.5"/>
  <!-- titlebar -->
  <rect x="34" y="28" width="206" height="30" rx="11" fill="#6366f1"/>
  <rect x="34" y="48" width="206" height="10" fill="#6366f1"/>
  <!-- dots -->
  <circle cx="52"  cy="43" r="5" fill="#fff" opacity=".35"/>
  <circle cx="67"  cy="43" r="5" fill="#fff" opacity=".35"/>
  <circle cx="82"  cy="43" r="5" fill="#fff" opacity=".35"/>
  <!-- url bar -->
  <rect x="100" y="35" width="96" height="16" rx="8" fill="#fff" opacity=".18"/>
  <!-- sidebar -->
  <rect x="34" y="58" width="34" height="98" fill="#f5f3ff"/>
  <rect x="42" y="67" width="18" height="6" rx="3" fill="#6366f1" opacity=".5"/>
  <rect x="42" y="80" width="18" height="6" rx="3" fill="#8b5cf6" opacity=".35"/>
  <rect x="42" y="93" width="18" height="6" rx="3" fill="#6366f1" opacity=".3"/>
  <rect x="42" y="106" width="18" height="6" rx="3" fill="#8b5cf6" opacity=".3"/>
  <rect x="42" y="119" width="18" height="6" rx="3" fill="#6366f1" opacity=".25"/>
  <!-- line numbers -->
  <rect x="74" y="67" width="10" height="6" rx="2" fill="#94a3b8" opacity=".4"/>
  <rect x="74" y="80" width="10" height="6" rx="2" fill="#94a3b8" opacity=".4"/>
  <rect x="74" y="93" width="10" height="6" rx="2" fill="#94a3b8" opacity=".4"/>
  <rect x="74" y="106" width="10" height="6" rx="2" fill="#94a3b8" opacity=".4"/>
  <rect x="74" y="119" width="10" height="6" rx="2" fill="#94a3b8" opacity=".4"/>
  <rect x="74" y="132" width="10" height="6" rx="2" fill="#94a3b8" opacity=".4"/>
  <!-- code row 1 -->
  <rect x="90" y="67" width="28" height="6" rx="3" fill="#6366f1" opacity=".85"/>
  <rect x="123" y="67" width="18" height="6" rx="3" fill="#ec4899" opacity=".75"/>
  <rect x="146" y="67" width="44" height="6" rx="3" fill="#8b5cf6" opacity=".5"/>
  <!-- code row 2 -->
  <rect x="98" y="80" width="22" height="6" rx="3" fill="#94a3b8" opacity=".5"/>
  <rect x="125" y="80" width="38" height="6" rx="3" fill="#10b981" opacity=".75"/>
  <rect x="168" y="80" width="20" height="6" rx="3" fill="#6366f1" opacity=".45"/>
  <!-- code row 3 -->
  <rect x="98" y="93" width="14" height="6" rx="3" fill="#ec4899" opacity=".75"/>
  <rect x="117" y="93" width="52" height="6" rx="3" fill="#94a3b8" opacity=".4"/>
  <rect x="174" y="93" width="20" height="6" rx="3" fill="#f59e0b" opacity=".65"/>
  <!-- code row 4 -->
  <rect x="90" y="106" width="32" height="6" rx="3" fill="#8b5cf6" opacity=".65"/>
  <rect x="127" y="106" width="16" height="6" rx="3" fill="#ec4899" opacity=".55"/>
  <rect x="148" y="106" width="42" height="6" rx="3" fill="#94a3b8" opacity=".35"/>
  <!-- code row 5 -->
  <rect x="98" y="119" width="54" height="6" rx="3" fill="#6366f1" opacity=".5"/>
  <rect x="157" y="119" width="22" height="6" rx="3" fill="#10b981" opacity=".5"/>
  <!-- code row 6 -->
  <rect x="90" y="132" width="24" height="6" rx="3" fill="#6366f1" opacity=".7"/>
  <rect x="119" y="132" width="36" height="6" rx="3" fill="#94a3b8" opacity=".4"/>
  <rect x="160" y="132" width="18" height="6" rx="3" fill="#ec4899" opacity=".4"/>
</svg>
